<svg width="96" height="96" viewBox="0 0 408 353" fill="none" xmlns="http://www.w3.org/2000/svg">
<path d="M99 303C54.375 303 21.375 287.45 0 256.35L29.8125 239.592C38.0625 251.368 47.625 259.973 58.5 265.408C69.375 270.843 81.75 273.561 95.625 273.561C116.25 273.561 131.438 268.428 141.188 258.161C151.313 247.593 156.375 230.987 156.375 208.341V0H198V211.511C198 238.686 189.938 260.728 173.813 277.637C157.688 294.546 132.75 303 99 303Z" fill="#AB05A5"/>
<path d="M307.33 353C286.586 353 267.215 349.131 249.217 341.394C231.523 333.656 216.118 322.942 203 309.253L223.592 286.486C234.574 298.093 247.386 307.318 262.029 314.163C276.672 320.71 291.925 323.984 307.788 323.984C328.227 323.984 344.243 319.371 355.835 310.145C367.732 300.92 373.681 288.569 373.681 273.094C373.681 263.273 371.545 255.089 367.275 248.542C363.004 241.995 357.513 236.787 350.801 232.918C344.09 229.049 334.633 224.436 322.431 219.079L278.96 200.33C261.266 192.89 246.624 183.367 235.031 171.761C223.744 160.154 218.1 144.679 218.1 125.335C218.1 110.752 222.066 97.6578 229.998 86.0514C237.929 74.4449 248.911 65.3681 262.944 58.8209C277.282 52.2736 293.145 49 310.533 49C327.922 49 344.09 52.2736 359.038 58.8209C374.291 65.3681 387.256 74.1473 397.933 85.1586L379.629 106.139C359.801 87.3906 336.769 78.0162 310.533 78.0162C292.84 78.0162 278.655 82.1826 267.978 90.5154C257.301 98.8483 251.962 109.86 251.962 123.549C251.962 132.775 254.403 140.512 259.283 146.762C264.164 153.012 269.808 157.922 276.214 161.493C282.621 165.065 291.315 169.231 302.297 173.993L345.768 192.742C365.597 200.777 380.85 210.746 391.527 222.651C402.509 234.555 408 250.625 408 270.862C408 286.337 403.882 300.325 395.645 312.824C387.408 325.323 375.664 335.144 360.411 342.286C345.158 349.429 327.464 353 307.33 353Z" fill="#AB0552"/>
</svg>
